<svg width="100" height="100" viewBox="0 0 100 100" fill="none" xmlns="http://www.w3.org/2000/svg">
<path d="M37.5 75V20.8333L87.5 12.5V66.6667" stroke="black" stroke-width="10" stroke-linecap="round" stroke-linejoin="round"/>
<path d="M25 87.5C31.9036 87.5 37.5 81.9036 37.5 75C37.5 68.0964 31.9036 62.5 25 62.5C18.0964 62.5 12.5 68.0964 12.5 75C12.5 81.9036 18.0964 87.5 25 87.5Z" stroke="black" stroke-width="10" stroke-linecap="round" stroke-linejoin="round"/>
<path d="M75 79.1667C81.9036 79.1667 87.5 73.5703 87.5 66.6667C87.5 59.7632 81.9036 54.1667 75 54.1667C68.0964 54.1667 62.5 59.7632 62.5 66.6667C62.5 73.5703 68.0964 79.1667 75 79.1667Z" stroke="black" stroke-width="10" stroke-linecap="round" stroke-linejoin="round"/>
</svg>
