<svg width="100" height="100" viewBox="0 0 100 100" fill="none" xmlns="http://www.w3.org/2000/svg">
<path d="M45.9042 11.7249C46.0827 10.7691 46.5899 9.90578 47.3379 9.28455C48.0859 8.66331 49.0277 8.32324 50 8.32324C50.9724 8.32324 51.9141 8.66331 52.6621 9.28455C53.4101 9.90578 53.9173 10.7691 54.0958 11.7249L58.475 34.8832C58.786 36.5297 59.5862 38.0441 60.771 39.2289C61.9558 40.4137 63.4702 41.2139 65.1167 41.5249L88.275 45.9041C89.2308 46.0826 90.0941 46.5898 90.7153 47.3378C91.3366 48.0858 91.6766 49.0275 91.6766 49.9999C91.6766 50.9722 91.3366 51.914 90.7153 52.662C90.0941 53.41 89.2308 53.9172 88.275 54.0957L65.1167 58.4749C63.4702 58.7859 61.9558 59.586 60.771 60.7708C59.5862 61.9556 58.786 63.4701 58.475 65.1166L54.0958 88.2749C53.9173 89.2307 53.4101 90.094 52.6621 90.7152C51.9141 91.3365 50.9724 91.6765 50 91.6765C49.0277 91.6765 48.0859 91.3365 47.3379 90.7152C46.5899 90.094 46.0827 89.2307 45.9042 88.2749L41.525 65.1166C41.214 63.4701 40.4139 61.9556 39.2291 60.7708C38.0442 59.586 36.5298 58.7859 34.8833 58.4749L11.725 54.0957C10.7692 53.9172 9.90591 53.41 9.28467 52.662C8.66343 51.914 8.32336 50.9722 8.32336 49.9999C8.32336 49.0275 8.66343 48.0858 9.28467 47.3378C9.90591 46.5898 10.7692 46.0826 11.725 45.9041L34.8833 41.5249C36.5298 41.2139 38.0442 40.4137 39.2291 39.2289C40.4139 38.0441 41.214 36.5297 41.525 34.8832L45.9042 11.7249Z" stroke="black" stroke-width="10" stroke-linecap="round" stroke-linejoin="round"/>
<path d="M83.3334 8.33325V24.9999" stroke="black" stroke-width="10" stroke-linecap="round" stroke-linejoin="round"/>
<path d="M91.6667 16.6667H75" stroke="black" stroke-width="10" stroke-linecap="round" stroke-linejoin="round"/>
<path d="M16.6667 91.6667C21.2691 91.6667 25 87.9357 25 83.3333C25 78.731 21.2691 75 16.6667 75C12.0643 75 8.33337 78.731 8.33337 83.3333C8.33337 87.9357 12.0643 91.6667 16.6667 91.6667Z" stroke="black" stroke-width="10" stroke-linecap="round" stroke-linejoin="round"/>
</svg>
