<svg width="100" height="100" viewBox="0 0 100 100" fill="none" xmlns="http://www.w3.org/2000/svg">
<path d="M45.8333 19.5917C45.8325 19.0113 45.6597 18.4442 45.3369 17.9619C45.0141 17.4796 44.5556 17.1038 44.0194 16.8818C43.4831 16.6598 42.8932 16.6017 42.3239 16.7147C41.7546 16.8277 41.2316 17.1067 40.8208 17.5167L26.7208 31.6125C26.1767 32.1599 25.5293 32.5939 24.8162 32.8893C24.1031 33.1847 23.3385 33.3356 22.5666 33.3334H12.5C11.3949 33.3334 10.3351 33.7724 9.5537 34.5538C8.7723 35.3352 8.33331 36.395 8.33331 37.5V62.5C8.33331 63.6051 8.7723 64.6649 9.5537 65.4463C10.3351 66.2277 11.3949 66.6667 12.5 66.6667H22.5666C23.3385 66.6644 24.1031 66.8154 24.8162 67.1108C25.5293 67.4062 26.1767 67.8401 26.7208 68.3875L40.8166 82.4875C41.2275 82.8992 41.7513 83.1796 42.3216 83.2933C42.892 83.407 43.4832 83.3488 44.0205 83.1261C44.5578 82.9035 45.0168 82.5263 45.3396 82.0425C45.6623 81.5587 45.8341 80.9899 45.8333 80.4084V19.5917Z" stroke="black" stroke-width="10" stroke-linecap="round" stroke-linejoin="round"/>
<path d="M66.6667 37.5C69.3713 41.1062 70.8334 45.4923 70.8334 50C70.8334 54.5077 69.3713 58.8938 66.6667 62.5" stroke="black" stroke-width="10" stroke-linecap="round" stroke-linejoin="round"/>
<path d="M80.6833 76.5167C84.1656 73.0345 86.9279 68.9005 88.8124 64.3508C90.697 59.8011 91.667 54.9247 91.667 50.0001C91.667 45.0755 90.697 40.1991 88.8124 35.6493C86.9279 31.0996 84.1656 26.9656 80.6833 23.4834" stroke="black" stroke-width="10" stroke-linecap="round" stroke-linejoin="round"/>
</svg>
